<svg width="16" height="16" viewBox="0 0 16 16" fill="none" xmlns="http://www.w3.org/2000/svg">
<g clip-path="url(#clip0_17_3278)">
<path d="M10.285 0H5.71389V1.52409H10.285V0ZM7.23797 9.90482H8.76206V5.33372H7.23797V9.90482ZM13.3563 4.86851L14.4383 3.78649C14.1134 3.39689 13.754 3.03745 13.3644 2.71257L12.2824 3.79459C10.9134 2.70015 9.17734 2.17148 7.43074 2.31719C5.68414 2.46291 4.05965 3.27193 2.89097 4.57808C1.72229 5.88423 1.09816 7.58832 1.14678 9.34031C1.1954 11.0923 1.91308 12.7592 3.1524 13.9985C4.39172 15.2378 6.05858 15.9555 7.81057 16.0041C9.56257 16.0527 11.2667 15.4286 12.5728 14.2599C13.879 13.0912 14.688 11.4667 14.8337 9.72015C14.9794 7.97355 14.4507 6.23746 13.3563 4.86851ZM8.00059 14.4736C6.94553 14.4738 5.91411 14.1611 5.03678 13.5751C4.15945 12.9891 3.47564 12.156 3.07183 11.1813C2.66803 10.2066 2.56237 9.13396 2.76823 8.09918C2.97409 7.0644 3.48222 6.11392 4.22834 5.36796C4.97446 4.62201 5.92505 4.11409 6.95987 3.90845C7.9947 3.70282 9.06726 3.8087 10.0419 4.21272C11.0165 4.61674 11.8495 5.30073 12.4353 6.17819C13.0212 7.05564 13.3336 8.08714 13.3332 9.1422C13.3338 9.8428 13.1962 10.5367 12.9284 11.184C12.6606 11.8314 12.2677 12.4197 11.7723 12.9151C11.2769 13.4105 10.6887 13.8033 10.0413 14.0711C9.39389 14.339 8.70004 14.4765 7.99944 14.4759L8.00059 14.4736Z" fill="#0049AF"/>
</g>
<defs>
<clipPath id="clip0_17_3278">
<rect width="16" height="16" fill="white"/>
</clipPath>
</defs>
</svg>
