<svg width="16" height="16" viewBox="0 0 16 16" fill="none" xmlns="http://www.w3.org/2000/svg">
<path d="M11.1728 2.90496C11.1728 2.81337 11.1728 2.7584 11.1728 2.7065C11.1728 2.06531 11.1728 1.42412 11.1728 0.782929C11.1728 0.459281 11.2701 0.358522 11.5887 0.355469C11.9426 0.355469 12.2966 0.355469 12.6505 0.355469C12.9248 0.355469 13.034 0.465387 13.034 0.752396C13.034 1.9676 13.0369 3.18587 13.034 4.40107C13.034 4.52931 13.0694 4.61481 13.1638 4.70029C14.0044 5.4453 14.8392 6.19335 15.6739 6.94446C16.0898 7.32002 16.1104 7.93067 15.7211 8.30012C15.3996 8.60544 14.9188 8.62071 14.5766 8.32455C14.2905 8.07723 14.0103 7.82075 13.7271 7.56733C13.6858 7.53069 13.6446 7.49711 13.5708 7.43604C13.5708 7.52764 13.5708 7.58565 13.5708 7.64366C13.5708 9.7199 13.5708 11.7961 13.5708 13.8724C13.5708 14.3395 13.4292 14.7425 13.09 15.0601C12.8334 15.3013 12.5296 15.4418 12.1815 15.4448C11.335 15.4509 10.4914 15.4478 9.64484 15.4478C9.62715 15.4478 9.6065 15.4418 9.56521 15.4356C9.56521 15.3715 9.56521 15.3074 9.56521 15.2433C9.56521 13.7105 9.56816 12.1809 9.56226 10.6481C9.56226 10.5046 9.53276 10.3519 9.47377 10.2237C9.37938 10.0222 9.1965 9.92446 8.97823 9.92141C8.31456 9.91836 7.65089 9.91531 6.98722 9.92446C6.64802 9.92751 6.415 10.1962 6.41205 10.5657C6.41205 12.1229 6.41205 13.68 6.41205 15.2372C6.41205 15.2983 6.41205 15.3593 6.41205 15.4387C6.35305 15.4418 6.29996 15.4478 6.24982 15.4478C5.49766 15.4478 4.7455 15.4509 3.99335 15.4478C3.13795 15.4448 2.51853 14.7945 2.51853 13.909C2.51853 11.7961 2.51853 9.68631 2.51853 7.57344C2.51853 7.51543 2.51853 7.45436 2.51853 7.35665C2.44774 7.41466 2.40644 7.44825 2.3681 7.48184C2.06428 7.75358 1.76047 8.02838 1.45371 8.30012C1.05846 8.64819 0.521625 8.61461 0.203064 8.22379C-0.109597 7.83907 -0.0565025 7.28948 0.3299 6.94446C2.68371 4.8377 5.03162 2.73397 7.38248 0.630264C7.76593 0.288296 8.24377 0.288296 8.62722 0.630264C9.42067 1.33863 10.2112 2.04699 11.0017 2.7584C11.0489 2.7981 11.0961 2.83779 11.1728 2.90496Z" fill="white"/>
</svg>
