<svg width="16" height="16" viewBox="0 0 16 16" fill="none" xmlns="http://www.w3.org/2000/svg">
<g clip-path="url(#clip0_17_3284)">
<path d="M7.02188 3.60729C6.89454 3.55479 6.7563 3.53419 6.61919 3.54729C6.48207 3.56038 6.35023 3.60676 6.23513 3.68241L3.20182 5.77264H0.745123C0.562565 5.75996 0.382325 5.81944 0.243169 5.93828C0.104014 6.05713 0.0170586 6.22584 0.00100708 6.40813V9.58762C0.0170586 9.76991 0.104014 9.93862 0.243169 10.0575C0.382325 10.1763 0.562565 10.2358 0.745123 10.2231H3.20182L6.23513 12.3093C6.37307 12.4003 6.53479 12.4487 6.70007 12.4484C6.81021 12.4487 6.91929 12.427 7.02087 12.3844C7.14046 12.342 7.24465 12.2649 7.32008 12.1629C7.39551 12.0608 7.43873 11.9386 7.44419 11.8118V4.18289C7.4394 4.05572 7.39661 3.93291 7.32133 3.83031C7.24605 3.72771 7.14175 3.65003 7.02188 3.60729Z" fill="#0049AF"/>
<path d="M16 7.99888C15.9905 6.75457 15.7136 5.52684 15.1882 4.39888C14.6627 3.27091 13.901 2.26907 12.9545 1.46122C12.8443 1.36712 12.7041 1.31543 12.5591 1.31543C12.4142 1.31543 12.274 1.36712 12.1637 1.46122C12.1122 1.50496 12.0707 1.5594 12.0423 1.62076C12.0139 1.68211 11.9992 1.74891 11.9992 1.81653C11.9992 1.88414 12.0139 1.95094 12.0423 2.0123C12.0707 2.07365 12.1122 2.12809 12.1637 2.17183C13.0064 2.89161 13.6844 3.78422 14.1517 4.7891C14.619 5.79398 14.8647 6.88762 14.8722 7.99583C14.8637 9.10386 14.6175 10.1972 14.1502 11.2019C13.683 12.2066 13.0056 13.0994 12.1637 13.8198C12.1122 13.8636 12.0707 13.918 12.0423 13.9794C12.0139 14.0407 11.9992 14.1075 11.9992 14.1751C11.9992 14.2427 12.0139 14.3095 12.0423 14.3709C12.0707 14.4323 12.1122 14.4867 12.1637 14.5304C12.2719 14.6288 12.4134 14.6825 12.5596 14.6807C12.7033 14.681 12.8423 14.6291 12.9505 14.5345C13.8978 13.7274 14.6602 12.7258 15.1858 11.5976C15.7113 10.4695 15.9876 9.24136 15.996 7.99685L16 7.99888Z" fill="#0049AF"/>
<path d="M13.4489 8.00011C13.4405 7.12002 13.2416 6.2522 12.8656 5.45639C12.4897 4.66058 11.9458 3.95569 11.2714 3.39025C11.1599 3.29878 11.0202 3.24878 10.876 3.24878C10.7318 3.24878 10.592 3.29878 10.4806 3.39025C10.4294 3.43114 10.388 3.48304 10.3596 3.54208C10.3312 3.60113 10.3164 3.66582 10.3164 3.73135C10.3164 3.79687 10.3312 3.86156 10.3596 3.92061C10.388 3.97965 10.4294 4.03155 10.4806 4.07244C11.0559 4.55544 11.5199 5.15737 11.8404 5.83679C12.1609 6.51622 12.3304 7.25702 12.3373 8.00823C12.3304 8.75944 12.1609 9.50024 11.8404 10.1797C11.5199 10.8591 11.0559 11.461 10.4806 11.944C10.4294 11.9849 10.388 12.0368 10.3596 12.0959C10.3312 12.1549 10.3164 12.2196 10.3164 12.2851C10.3164 12.3506 10.3312 12.4153 10.3596 12.4744C10.388 12.5334 10.4294 12.5853 10.4806 12.6262C10.5904 12.7172 10.7287 12.7668 10.8714 12.7663C11.0166 12.7684 11.1575 12.7171 11.2673 12.6222C11.9421 12.0552 12.4865 11.3491 12.8633 10.5522C13.24 9.75537 13.4401 8.88654 13.4499 8.00519L13.4489 8.00011Z" fill="#0049AF"/>
<path d="M9.26744 4.66525C9.16129 4.56284 9.01954 4.50562 8.87204 4.50562C8.72453 4.50562 8.58278 4.56284 8.47663 4.66525C8.42468 4.71518 8.38334 4.77508 8.35511 4.84137C8.32687 4.90766 8.31232 4.97897 8.31232 5.05102C8.31232 5.12307 8.32687 5.19438 8.35511 5.26067C8.38334 5.32695 8.42468 5.38686 8.47663 5.43678C8.81708 5.77181 9.08712 6.17152 9.27086 6.61241C9.45461 7.0533 9.54837 7.52648 9.54661 8.00413C9.54752 8.48165 9.45338 8.95458 9.26968 9.39535C9.08598 9.83613 8.81639 10.2359 8.47663 10.5715C8.42468 10.6214 8.38334 10.6813 8.35511 10.7476C8.32687 10.8139 8.31232 10.8852 8.31232 10.9572C8.31232 11.0293 8.32687 11.1006 8.35511 11.1669C8.38334 11.2332 8.42468 11.2931 8.47663 11.343C8.58161 11.4442 8.72164 11.501 8.86747 11.5014C8.94101 11.5018 9.0139 11.4876 9.08188 11.4595C9.14986 11.4315 9.21157 11.3901 9.26338 11.3379C9.70549 10.9037 10.0563 10.3854 10.2951 9.81355C10.534 9.24172 10.656 8.6279 10.6542 8.00819C10.6589 7.38647 10.5386 6.77014 10.3004 6.19586C10.0622 5.62157 9.71088 5.10105 9.26744 4.66525Z" fill="#0049AF"/>
</g>
<defs>
<clipPath id="clip0_17_3284">
<rect width="16" height="16" fill="white"/>
</clipPath>
</defs>
</svg>
