<svg width="21" height="20" viewBox="0 0 21 20" fill="none" xmlns="http://www.w3.org/2000/svg">
<path d="M10.8048 0.622559C7.03882 0.622559 3.97315 3.7074 3.97314 7.49694C3.97314 14.1649 10.4197 19.2341 10.4197 19.2341C10.5297 19.3225 10.6663 19.3706 10.8071 19.3706C10.9479 19.3706 11.0845 19.3225 11.1946 19.2341C11.1946 19.2341 17.6411 14.1649 17.6411 7.49694C17.6411 3.7074 14.5708 0.622559 10.8048 0.622559ZM10.8048 1.87287C13.8995 1.87287 16.3986 4.38294 16.3986 7.49694C16.3986 12.9519 11.4897 17.2617 10.8094 17.8454C10.1324 17.2646 5.21568 12.954 5.21569 7.49694C5.21569 4.38294 7.71017 1.87287 10.8048 1.87287Z" fill="white"/>
<path d="M10.8047 4.37354C9.09694 4.37354 7.70069 5.77852 7.70068 7.497C7.70067 9.2155 9.09692 10.6251 10.8047 10.6251C12.5126 10.6251 13.9134 9.2155 13.9134 7.497C13.9134 5.77852 12.5126 4.37354 10.8047 4.37354ZM10.8047 5.62384C11.8412 5.62384 12.6708 6.45406 12.6709 7.497C12.6709 8.53993 11.8412 9.37476 10.8047 9.37476C9.76828 9.37476 8.94322 8.53993 8.94323 7.497C8.94323 6.45406 9.76829 5.62384 10.8047 5.62384Z" fill="white"/>
</svg>
