<svg width="11" height="2" viewBox="0 0 11 2" fill="none" xmlns="http://www.w3.org/2000/svg">
<path d="M9.73047 2C9.12247 2 8.73047 1.575 8.73047 1C8.73047 0.425 9.12247 0 9.73047 0C10.3385 0 10.7305 0.448 10.7305 1C10.7305 1.575 10.3385 2 9.73047 2ZM5.73047 2C5.12247 2 4.73047 1.575 4.73047 1C4.73047 0.425 5.12247 0 5.73047 0C6.33847 0 6.73047 0.448 6.73047 1C6.73047 1.575 6.33847 2 5.73047 2ZM1.73047 2C1.12247 2 0.730469 1.575 0.730469 1C0.730469 0.425 1.12247 0 1.73047 0C2.33847 0 2.73047 0.448 2.73047 1C2.73047 1.575 2.33847 2 1.73047 2Z" fill="#0049AF"/>
</svg>
